<svg width="183" height="158" viewBox="0 0 183 158" fill="none" xmlns="http://www.w3.org/2000/svg">
<path d="M8.81639 73.0789L176.327 43.5422L177.107 82.419L9.67269 111.947L8.81639 73.0789Z" fill="black"/>
<path d="M5.72957 69.5865L5.30706 69.661L5.31651 70.0899L6.17281 108.958L6.18565 109.541L6.75953 109.44L174.194 79.9114L174.615 79.837L174.607 79.409L173.827 40.5322L173.816 39.9484L173.24 40.0498L5.72957 69.5865Z" fill="white" stroke="black"/>
<path fill-rule="evenodd" clip-rule="evenodd" d="M96.7632 103.006L8.81836 118.513L9.67466 157.381L98.0283 141.799L96.7632 103.006Z" fill="black"/>
<path fill-rule="evenodd" clip-rule="evenodd" d="M140.222 5.00562L8.81836 28.1756L9.67466 67.0439L141.487 43.7979L140.222 5.00562Z" fill="black"/>
<mask id="path-5-outside-1_302_559" maskUnits="userSpaceOnUse" x="3.81836" y="-0.000244141" width="136" height="66" fill="black">
<rect fill="white" x="3.81836" y="-0.000244141" width="136" height="66"/>
<path fill-rule="evenodd" clip-rule="evenodd" d="M137.255 1.99976L5.81836 25.1755L6.67466 64.0438L138.52 40.792L137.255 1.99976Z"/>
</mask>
<path fill-rule="evenodd" clip-rule="evenodd" d="M137.255 1.99976L5.81836 25.1755L6.67466 64.0438L138.52 40.792L137.255 1.99976Z" fill="white"/>
<path d="M5.81836 25.1755L5.64471 24.1907L4.7997 24.3397L4.8186 25.1975L5.81836 25.1755ZM137.255 1.99976L138.254 1.96716L138.216 0.814722L137.081 1.01495L137.255 1.99976ZM6.67466 64.0438L5.6749 64.0658L5.70057 65.231L6.84833 65.0286L6.67466 64.0438ZM138.52 40.792L138.693 41.7768L139.547 41.6262L139.519 40.7594L138.52 40.792ZM5.99201 26.1603L137.428 2.98456L137.081 1.01495L5.64471 24.1907L5.99201 26.1603ZM7.67441 64.0218L6.81812 25.1535L4.8186 25.1975L5.6749 64.0658L7.67441 64.0218ZM138.346 39.8072L6.50098 63.059L6.84833 65.0286L138.693 41.7768L138.346 39.8072ZM139.519 40.7594L138.254 1.96716L136.255 2.03235L137.52 40.8246L139.519 40.7594Z" fill="black" mask="url(#path-5-outside-1_302_559)"/>
<mask id="path-7-outside-2_302_559" maskUnits="userSpaceOnUse" x="3.81836" y="98.0059" width="93" height="58" fill="black">
<rect fill="white" x="3.81836" y="98.0059" width="93" height="58"/>
<path fill-rule="evenodd" clip-rule="evenodd" d="M93.7632 100.006L5.81836 115.513L6.67466 154.381L95.0283 138.799L93.7632 100.006Z"/>
</mask>
<path fill-rule="evenodd" clip-rule="evenodd" d="M93.7632 100.006L5.81836 115.513L6.67466 154.381L95.0283 138.799L93.7632 100.006Z" fill="white"/>
<path d="M5.81836 115.513L5.64471 114.528L4.7997 114.677L4.8186 115.535L5.81836 115.513ZM93.7632 100.006L94.7626 99.9733L94.7251 98.8208L93.5895 99.0211L93.7632 100.006ZM6.67466 154.381L5.6749 154.403L5.70057 155.568L6.84833 155.366L6.67466 154.381ZM95.0283 138.799L95.202 139.784L96.056 139.634L96.0277 138.767L95.0283 138.799ZM5.99201 116.498L93.9368 100.991L93.5895 99.0211L5.64471 114.528L5.99201 116.498ZM7.67441 154.359L6.81812 115.491L4.8186 115.535L5.6749 154.403L7.67441 154.359ZM94.8546 137.815L6.50098 153.396L6.84833 155.366L95.202 139.784L94.8546 137.815ZM96.0277 138.767L94.7626 99.9733L92.7637 100.038L94.0288 138.832L96.0277 138.767Z" fill="black" mask="url(#path-7-outside-2_302_559)"/>
<path d="M52.0242 22.8401L45.0907 51.4542L37.2573 52.8355L33.0081 35.5968L28.6291 54.3568L20.7957 55.7381L14.068 29.5328L20.9932 28.3117L24.8192 47.5759L29.5456 26.8037L36.6979 25.5426L41.2229 44.5665L45.0612 24.0679L52.0242 22.8401Z" fill="black"/>
<path d="M78.2779 18.2109L78.2696 45.6039L71.7985 46.7449L71.7867 35.3924L61.7206 37.1673L61.7324 48.5198L55.2613 49.6609L55.2695 22.2679L61.7406 21.1268L61.728 31.8984L71.7942 30.1235L71.8068 19.3519L78.2779 18.2109Z" fill="black"/>
<path d="M99.4835 37.0249L89.5687 38.7731L87.9742 43.8927L81.2004 45.0871L90.8207 15.9993L98.3135 14.6781L107.917 40.3762L101.068 41.5839L99.4835 37.0249ZM97.8592 32.2388L94.5728 22.6733L91.2367 33.4065L97.8592 32.2388Z" fill="black"/>
<path d="M129.962 9.09766L129.992 14.3599L122.915 15.6077L122.915 37.7318L116.443 38.8728L116.444 16.7487L109.406 17.9898L109.413 12.7209L129.962 9.09766Z" fill="black"/>
<path d="M24.3359 72.5945C26.783 72.163 28.9674 72.233 30.8891 72.8046C32.8316 73.3466 34.4097 74.3299 35.6234 75.7547C36.8579 77.1499 37.662 78.907 38.0356 81.0262C38.1646 81.7578 38.2387 82.6942 38.2578 83.8354C38.2619 86.514 37.685 88.9959 36.5272 91.2811C35.3946 93.5618 33.7657 95.4619 31.6404 96.9812C29.5403 98.496 27.1027 99.4981 24.3276 99.9875L14.375 101.742L14.3832 74.3494L24.3359 72.5945ZM23.921 94.3624C26.3682 93.9308 28.279 92.8916 29.6534 91.2445C31.0278 89.5975 31.7011 87.5148 31.6732 84.9965C31.6659 84.2174 31.6178 83.5755 31.5288 83.071C31.1996 81.2041 30.3784 79.8661 29.0652 79.0572C27.7475 78.223 26.0417 77.9905 23.9477 78.3597L20.8446 78.9069L20.8558 94.9028L23.921 94.3624Z" fill="black"/>
<path d="M48.3494 68.3602L48.3412 95.7532L41.8701 96.8943L41.8783 69.5013L48.3494 68.3602Z" fill="black"/>
<path d="M62.9916 65.7784C65.4388 65.3469 67.6232 65.417 69.5449 65.9886C71.4873 66.5305 73.0654 67.5139 74.2791 68.9387C75.5136 70.3338 76.3177 72.091 76.6914 74.2102C76.8204 74.9418 76.8944 75.8782 76.9136 77.0194C76.9177 79.698 76.3408 82.1799 75.1829 84.4651C74.0503 86.7458 72.4214 88.6458 70.2961 90.1651C68.1961 91.68 65.7585 92.6821 62.9833 93.1714L53.0307 94.9263L53.039 67.5334L62.9916 65.7784ZM62.5768 87.5463C65.0239 87.1148 66.9347 86.0755 68.3091 84.4285C69.6835 82.7815 70.3568 80.6988 70.3289 78.1804C70.3216 77.4013 70.2735 76.7595 70.1845 76.2549C69.8553 74.388 69.0341 73.0501 67.7209 72.2411C66.4033 71.4069 64.6974 71.1745 62.6035 71.5437L59.5004 72.0908L59.5115 88.0868L62.5768 87.5463Z" fill="black"/>
<path d="M112.074 57.1239L102.911 77.0786L102.87 86.1384L96.3987 87.2794L96.4401 78.2196L87.2112 61.5079L94.5527 60.2134L99.6866 70.7408L104.808 58.4051L112.074 57.1239Z" fill="black"/>
<path d="M127.359 82.0934C125.114 82.4893 123.051 82.3718 121.171 81.7408C119.316 81.1054 117.773 80.0248 116.541 78.4991C115.31 76.9734 114.501 75.1131 114.114 72.9182C113.566 69.8151 113.748 66.9347 114.658 64.277C115.563 61.5941 117.082 59.3624 119.213 57.5819C121.37 55.797 123.962 54.6376 126.989 54.1038C129.26 53.7034 131.335 53.8187 133.215 54.4497C135.091 55.0554 136.644 56.1211 137.876 57.6468C139.103 59.1473 139.908 60.9824 140.29 63.152C140.837 66.2551 140.66 69.1608 139.759 71.8689C138.854 74.5519 137.325 76.7984 135.173 78.6086C133.016 80.3935 130.412 81.5551 127.359 82.0934ZM127.289 75.9407C128.954 75.6471 130.341 74.9602 131.452 73.8801C132.562 72.7999 133.331 71.4807 133.758 69.9226C134.207 68.3348 134.282 66.6957 133.984 65.0054C133.663 63.189 132.908 61.8525 131.716 60.9961C130.525 60.1397 129.021 59.8716 127.204 60.1919C125.539 60.4855 124.139 61.1746 123.003 62.2592C121.893 63.3394 121.112 64.6608 120.659 66.2234C120.227 67.7563 120.162 69.3805 120.465 71.096C120.785 72.9125 121.543 74.2615 122.739 75.1432C123.93 75.9996 125.447 76.2655 127.289 75.9407Z" fill="black"/>
<path d="M150.788 50.2975L150.784 66.6474C150.798 67.3211 150.828 67.7841 150.872 68.0364C151.077 69.1969 151.563 70.0347 152.33 70.5498C153.093 71.0396 154.118 71.1711 155.404 70.9442C156.918 70.6773 158.078 70.0304 158.886 69.0036C159.693 67.9768 160.096 66.6443 160.093 65.0059L160.097 48.6561L166.569 47.515L166.564 63.8649C166.558 66.3372 166.058 68.5194 165.065 70.4113C164.093 72.2736 162.757 73.7707 161.058 74.9028C159.384 76.0304 157.474 76.7833 155.33 77.1614C152.555 77.6507 150.183 77.3276 148.214 76.1921C146.27 75.0521 145.058 73.1198 144.577 70.3951C144.435 69.5878 144.359 68.7167 144.35 67.7818L144.317 51.4386L150.788 50.2975Z" fill="black"/>
<path d="M23.2509 118.658C25.6981 118.226 27.8825 118.297 29.8042 118.868C31.7467 119.41 33.3248 120.393 34.5385 121.818C35.773 123.213 36.577 124.97 36.9507 127.09C37.0797 127.821 37.1538 128.758 37.1729 129.899C37.177 132.577 36.6001 135.059 35.4423 137.345C34.3097 139.625 32.6807 141.525 30.5555 143.045C28.4554 144.56 26.0178 145.562 23.2427 146.051L13.29 147.806L13.2983 120.413L23.2509 118.658ZM22.8361 140.426C25.2833 139.994 27.194 138.955 28.5685 137.308C29.9429 135.661 30.6161 133.578 30.5883 131.06C30.581 130.281 30.5328 129.639 30.4439 129.134C30.1147 127.268 29.2935 125.93 27.9803 125.121C26.6626 124.286 24.9568 124.054 22.8628 124.423L19.7597 124.97L19.7708 140.966L22.8361 140.426Z" fill="black"/>
<path d="M53.4713 140.994C51.226 141.39 49.1632 141.272 47.2831 140.641C45.4282 140.006 43.885 138.925 42.6535 137.4C41.422 135.874 40.6128 134.014 40.2257 131.819C39.6786 128.716 39.86 125.835 40.7701 123.178C41.6757 120.495 43.1941 118.263 45.3254 116.482C47.4819 114.698 50.0738 113.538 53.1012 113.004C55.3718 112.604 57.4471 112.719 59.3273 113.35C61.203 113.956 62.7565 115.022 63.988 116.547C65.2151 118.048 66.0199 119.883 66.4025 122.053C66.9496 125.156 66.7726 128.061 65.8715 130.77C64.9659 133.452 63.437 135.699 61.285 137.509C59.1285 139.294 56.524 140.456 53.4713 140.994ZM53.4009 134.841C55.066 134.548 56.4536 133.861 57.5638 132.781C58.674 131.7 59.4429 130.381 59.8705 128.823C60.3189 127.235 60.394 125.596 60.096 123.906C59.7757 122.09 59.0198 120.753 57.8283 119.897C56.6368 119.04 55.1328 118.772 53.3163 119.092C51.6512 119.386 50.251 120.075 49.1156 121.16C48.0054 122.24 47.2239 123.561 46.7711 125.124C46.339 126.657 46.2742 128.281 46.5767 129.997C46.897 131.813 47.6551 133.162 48.8511 134.044C50.0426 134.9 51.5593 135.166 53.4009 134.841Z" fill="black"/>
<path d="M78.3431 107.422C80.6893 107.008 82.6415 107.236 84.1995 108.106C85.7828 108.972 86.7546 110.426 87.115 112.47C87.2217 113.075 87.2714 113.652 87.2639 114.199C87.2531 116.646 86.47 118.696 84.9146 120.349C83.3547 121.977 81.3029 123.028 78.7593 123.503L78.5786 126.461L72.9022 127.462L72.6828 120.243L74.9534 119.843C76.9212 119.496 78.4179 118.985 79.4434 118.309C80.4897 117.605 81.0004 116.591 80.9753 115.269C80.9783 115.138 80.9575 114.947 80.9131 114.695C80.7929 114.013 80.4977 113.519 80.0273 113.212C79.5525 112.88 78.9493 112.778 78.2176 112.907C77.3094 113.067 76.5993 113.465 76.0872 114.102C75.5959 114.709 75.3524 115.467 75.3568 116.377L69.2641 117.451C69.245 115.868 69.5806 114.378 70.2709 112.981C70.9611 111.585 71.9882 110.402 73.3521 109.434C74.7368 108.435 76.4005 107.765 78.3431 107.422ZM75.8102 137.094C74.8011 137.272 73.947 137.149 73.2481 136.726C72.57 136.274 72.1576 135.631 72.0108 134.799C71.8061 133.638 72.0615 132.578 72.7769 131.62C73.5176 130.657 74.5312 130.062 75.8179 129.835C76.8018 129.662 77.6328 129.801 78.3109 130.254C78.9846 130.681 79.3971 131.324 79.5483 132.182C79.7485 133.317 79.4783 134.366 78.7376 135.329C78.0222 136.288 77.0464 136.876 75.8102 137.094Z" fill="black"/>
</svg>
