<svg width="180" height="152" viewBox="0 0 180 152" fill="none" xmlns="http://www.w3.org/2000/svg">
<path d="M5.81639 68.079L173.327 38.5423L174.107 77.4191L6.67269 106.947L5.81639 68.079Z" fill="white"/>
<path fill-rule="evenodd" clip-rule="evenodd" d="M137.255 0L5.8186 23.1757L6.6749 62.044L138.52 38.7922L137.255 0Z" fill="white"/>
<path fill-rule="evenodd" clip-rule="evenodd" d="M93.7634 97.0061L5.8186 112.513L6.6749 151.381L95.0285 135.8L93.7634 97.0061Z" fill="white"/>
<path d="M52.0243 20.8402L45.0909 49.4543L37.2574 50.8356L33.0082 33.5969L28.6293 52.3569L20.7958 53.7382L14.0681 27.5329L20.9933 26.3118L24.8193 45.5761L29.5458 24.8038L36.698 23.5427L41.223 42.5666L45.0613 22.068L52.0243 20.8402Z" fill="black"/>
<path d="M78.278 16.211L78.2697 43.604L71.7986 44.745L71.7869 33.3925L61.7207 35.1674L61.7325 46.52L55.2614 47.661L55.2696 20.268L61.7407 19.127L61.7281 29.8985L71.7943 28.1236L71.8069 17.352L78.278 16.211Z" fill="black"/>
<path d="M99.4836 35.025L89.5688 36.7733L87.9743 41.8928L81.2005 43.0872L90.8208 13.9994L98.3137 12.6782L107.917 38.3763L101.068 39.5841L99.4836 35.025ZM97.8593 30.2389L94.5729 20.6734L91.2369 31.4066L97.8593 30.2389Z" fill="black"/>
<path d="M129.962 7.09778L129.992 12.36L122.916 13.6078L122.915 35.7319L116.444 36.8729L116.444 14.7488L109.406 15.99L109.413 10.721L129.962 7.09778Z" fill="black"/>
<path d="M24.336 70.5946C26.7831 70.1631 28.9676 70.2332 30.8893 70.8048C32.8317 71.3467 34.4098 72.3301 35.6235 73.7549C36.858 75.15 37.6621 76.9071 38.0358 79.0263C38.1648 79.758 38.2388 80.6944 38.258 81.8355C38.262 84.5142 37.6852 86.996 36.5273 89.2812C35.3947 91.562 33.7658 93.462 31.6405 94.9813C29.5404 96.4962 27.1028 97.4983 24.3277 97.9876L14.3751 99.7425L14.3834 72.3495L24.336 70.5946ZM23.9211 92.3625C26.3683 91.931 28.2791 90.8917 29.6535 89.2447C31.0279 87.5976 31.7012 85.5149 31.6733 82.9966C31.666 82.2175 31.6179 81.5757 31.5289 81.0711C31.1997 79.2042 30.3785 77.8663 29.0653 77.0573C27.7476 76.2231 26.0418 75.9906 23.9479 76.3599L20.8448 76.907L20.8559 92.903L23.9211 92.3625Z" fill="black"/>
<path d="M48.3495 66.3604L48.3413 93.7534L41.8702 94.8944L41.8784 67.5014L48.3495 66.3604Z" fill="black"/>
<path d="M62.9917 63.7786C65.4389 63.3471 67.6233 63.4171 69.545 63.9887C71.4875 64.5306 73.0656 65.514 74.2793 66.9388C75.5137 68.3339 76.3178 70.0911 76.6915 72.2103C76.8205 72.9419 76.8946 73.8783 76.9137 75.0195C76.9178 77.6981 76.3409 80.18 75.1831 82.4652C74.0505 84.7459 72.4215 86.6459 70.2962 88.1653C68.1962 89.6801 65.7586 90.6822 62.9835 91.1716L53.0308 92.9265L53.0391 65.5335L62.9917 63.7786ZM62.5769 85.5464C65.024 85.1149 66.9348 84.0757 68.3092 82.4286C69.6836 80.7816 70.3569 78.6989 70.3291 76.1806C70.3218 75.4015 70.2736 74.7596 70.1847 74.2551C69.8555 72.3881 69.0343 71.0502 67.721 70.2413C66.4034 69.4071 64.6976 69.1746 62.6036 69.5438L59.5005 70.091L59.5116 86.0869L62.5769 85.5464Z" fill="black"/>
<path d="M23.2511 115.658C25.6982 115.227 27.8826 115.297 29.8043 115.868C31.7468 116.41 33.3249 117.394 34.5386 118.818C35.7731 120.213 36.5772 121.971 36.9508 124.09C37.0798 124.821 37.1539 125.758 37.173 126.899C37.1771 129.578 36.6002 132.06 35.4424 134.345C34.3098 136.625 32.6809 138.525 30.5556 140.045C28.4555 141.56 26.0179 142.562 23.2428 143.051L13.2902 144.806L13.2984 117.413L23.2511 115.658ZM22.8362 137.426C25.2834 136.994 27.1942 135.955 28.5686 134.308C29.943 132.661 30.6163 130.578 30.5884 128.06C30.5811 127.281 30.533 126.639 30.444 126.135C30.1148 124.268 29.2936 122.93 27.9804 122.121C26.6627 121.287 24.9569 121.054 22.8629 121.423L19.7598 121.97L19.771 137.966L22.8362 137.426Z" fill="black"/>
<path d="M53.4714 137.994C51.2261 138.39 49.1634 138.272 47.2832 137.642C45.4283 137.006 43.8851 135.926 42.6536 134.4C41.4221 132.874 40.6129 131.014 40.2259 128.819C39.6787 125.716 39.8601 122.835 40.7702 120.178C41.6758 117.495 43.1942 115.263 45.3255 113.483C47.482 111.698 50.0739 110.538 53.1014 110.004C55.3719 109.604 57.4473 109.719 59.3274 110.35C61.2031 110.956 62.7567 112.022 63.9882 113.548C65.2152 115.048 66.02 116.883 66.4026 119.053C66.9498 122.156 66.7728 125.061 65.8716 127.77C64.966 130.453 63.4372 132.699 61.2851 134.509C59.1286 136.294 56.5241 137.456 53.4714 137.994ZM53.4011 131.841C55.0661 131.548 56.4538 130.861 57.5639 129.781C58.6741 128.701 59.443 127.381 59.8706 125.823C60.319 124.235 60.3942 122.596 60.0961 120.906C59.7758 119.09 59.0199 117.753 57.8284 116.897C56.6369 116.04 55.1329 115.772 53.3164 116.093C51.6514 116.386 50.2511 117.075 49.1157 118.16C48.0055 119.24 47.224 120.562 46.7712 122.124C46.3391 123.657 46.2744 125.281 46.5769 126.997C46.8971 128.813 47.6553 130.162 48.8512 131.044C50.0428 131.9 51.5594 132.166 53.4011 131.841Z" fill="black"/>
<path d="M78.3432 104.422C80.6894 104.008 82.6416 104.236 84.1997 105.106C85.783 105.972 86.7548 107.426 87.1151 109.47C87.2219 110.075 87.2715 110.652 87.264 111.199C87.2533 113.646 86.4702 115.696 84.9147 117.349C83.3548 118.977 81.3031 120.028 78.7594 120.503L78.5787 123.461L72.9023 124.462L72.6829 117.243L74.9535 116.843C76.9213 116.496 78.418 115.985 79.4435 115.31C80.4898 114.605 81.0005 113.591 80.9754 112.269C80.9784 112.138 80.9577 111.947 80.9132 111.695C80.7931 111.014 80.4978 110.519 80.0274 110.212C79.5526 109.88 78.9494 109.778 78.2178 109.907C77.3095 110.067 76.5994 110.465 76.0873 111.102C75.596 111.709 75.3526 112.467 75.3569 113.377L69.2642 114.451C69.2451 112.868 69.5807 111.378 70.271 109.981C70.9612 108.585 71.9883 107.403 73.3522 106.434C74.7369 105.435 76.4006 104.765 78.3432 104.422ZM75.8103 134.094C74.8012 134.272 73.9472 134.15 73.2483 133.727C72.5701 133.274 72.1577 132.631 72.0109 131.799C71.8063 130.638 72.0616 129.579 72.7771 128.62C73.5177 127.657 74.5314 127.062 75.818 126.835C76.8019 126.662 77.6329 126.801 78.3111 127.254C78.9847 127.682 79.3972 128.324 79.5484 129.182C79.7486 130.317 79.4784 131.366 78.7377 132.329C78.0223 133.288 77.0465 133.876 75.8103 134.094Z" fill="black"/>
<path d="M112.074 55.124L102.911 75.0787L102.87 84.1385L96.3988 85.2795L96.4401 76.2197L87.2113 59.508L94.5528 58.2135L99.6867 68.7409L104.808 56.4052L112.074 55.124Z" fill="black"/>
<path d="M127.359 80.0935C125.114 80.4894 123.051 80.3719 121.171 79.7409C119.316 79.1055 117.773 78.025 116.541 76.4992C115.31 74.9735 114.501 73.1132 114.114 70.9184C113.566 67.8153 113.748 64.9349 114.658 62.2772C115.564 59.5942 117.082 57.3625 119.213 55.582C121.37 53.7971 123.962 52.6377 126.989 52.1039C129.26 51.7035 131.335 51.8188 133.215 52.4498C135.091 53.0555 136.644 54.1212 137.876 55.6469C139.103 57.1474 139.908 58.9825 140.29 61.1521C140.838 64.2552 140.661 67.1609 139.759 69.869C138.854 72.552 137.325 74.7985 135.173 76.6087C133.016 78.3936 130.412 79.5552 127.359 80.0935ZM127.289 73.9408C128.954 73.6473 130.342 72.9604 131.452 71.8802C132.562 70.8 133.331 69.4808 133.758 67.9227C134.207 66.3349 134.282 64.6958 133.984 63.0055C133.664 61.1891 132.908 59.8526 131.716 58.9962C130.525 58.1398 129.021 57.8717 127.204 58.192C125.539 58.4856 124.139 59.1747 123.003 60.2593C121.893 61.3395 121.112 62.6609 120.659 64.2235C120.227 65.7564 120.162 67.3806 120.465 69.0962C120.785 70.9126 121.543 72.2617 122.739 73.1433C123.931 73.9997 125.447 74.2656 127.289 73.9408Z" fill="black"/>
<path d="M150.788 48.2976L150.784 64.6475C150.798 65.3213 150.828 65.7843 150.873 66.0365C151.077 67.1971 151.563 68.0348 152.33 68.5499C153.093 69.0397 154.118 69.1712 155.404 68.9443C156.918 68.6774 158.079 68.0306 158.886 67.0037C159.693 65.9769 160.096 64.6444 160.093 63.006L160.098 46.6562L166.569 45.5151L166.564 61.865C166.558 64.3373 166.058 66.5195 165.065 68.4114C164.093 70.2737 162.757 71.7709 161.058 72.9029C159.384 74.0305 157.474 74.7834 155.33 75.1615C152.555 75.6508 150.183 75.3277 148.214 74.1922C146.27 73.0522 145.058 71.1199 144.577 68.3952C144.435 67.5879 144.359 66.7168 144.35 65.7819L144.317 49.4387L150.788 48.2976Z" fill="black"/>
</svg>
