<svg width="1em" viewBox="0 0 576 512" fill="none" xmlns="http://www.w3.org/2000/svg"> <g clip-path="url(#clip0_6_1181)"> <circle cx="206.5" cy="445.5" r="47.5" fill="#E4BF3A"/> <rect x="150" y="94" width="368" height="188" fill="#EED784"/> <circle cx="470.5" cy="445.5" r="47.5" fill="#E4BF3A"/> <path d="M551.991 64H144.28L135.554 19.392C133.35 8.128 123.478 0 112 0H12C5.373 0 0 5.373 0 12V36C0 42.627 5.373 48 12 48H92.24L161.834 403.701C150.796 415.201 144 430.802 144 448C144 483.346 172.654 512 208 512C243.346 512 272 483.346 272 448C272.012 436.763 269.051 425.723 263.417 416H408.584C402.95 425.723 399.989 436.763 400.001 448C400.001 483.346 428.655 512 464.001 512C499.347 512 528.001 483.346 528.001 448C528.001 429.864 520.445 413.504 508.325 401.858L509.36 397.101C512.614 382.141 501.218 368 485.908 368H203.76L194.37 320H506.775C518.065 320 527.829 312.131 530.227 301.098L575.443 93.098C578.695 78.139 567.299 64 551.991 64ZM208 472C194.766 472 184 461.234 184 448C184 434.766 194.766 424 208 424C221.234 424 232 434.766 232 448C232 461.234 221.234 472 208 472ZM464 472C450.766 472 440 461.234 440 448C440 434.766 450.766 424 464 424C477.234 424 488 434.766 488 448C488 461.234 477.234 472 464 472ZM487.438 272H184.98L153.67 112H522.218L487.438 272Z" fill="black"/> </g> <defs> <clipPath id="clip0_6_1181"> <rect width="576" height="512" fill="white"/> </clipPath> </defs> </svg>
