<svg width="1em" viewBox="0 0 384 512" fill="none" xmlns="http://www.w3.org/2000/svg"> <g clip-path="url(#clip0_6_1189)"> <path d="M312 24C312 17.6348 309.471 11.5303 304.971 7.02944C300.47 2.52856 294.365 0 288 0C281.635 0 275.53 2.52856 271.029 7.02944C266.529 11.5303 264 17.6348 264 24V112H312V24ZM120 24C120 17.6348 117.471 11.5303 112.971 7.02944C108.47 2.52856 102.365 0 96 0C89.6348 0 83.5303 2.52856 79.0294 7.02944C74.5286 11.5303 72 17.6348 72 24V112H120V24ZM368 144H16C11.7565 144 7.68687 145.686 4.68629 148.686C1.68571 151.687 0 155.757 0 160L0 176C0 180.243 1.68571 184.313 4.68629 187.314C7.68687 190.314 11.7565 192 16 192H32V256C32 336.14 91.11 401.92 168 413.58V512H216V413.58C292.89 401.92 352 336.14 352 256V192H368C372.243 192 376.313 190.314 379.314 187.314C382.314 184.313 384 180.243 384 176V160C384 155.757 382.314 151.687 379.314 148.686C376.313 145.686 372.243 144 368 144Z" fill="#E4BF3A"/> <path d="M312 24C312 17.6348 309.471 11.5303 304.971 7.02944C300.47 2.52856 294.365 0 288 0C281.635 0 275.53 2.52856 271.029 7.02944C266.529 11.5303 264 17.6348 264 24V112H312V24ZM120 24C120 17.6348 117.471 11.5303 112.971 7.02944C108.47 2.52856 102.365 0 96 0C89.6348 0 83.5303 2.52856 79.0294 7.02944C74.5286 11.5303 72 17.6348 72 24V112H120V24ZM368 144H16C11.7565 144 7.68687 145.686 4.68629 148.686C1.68571 151.687 0 155.757 0 160L0 176C0 180.243 1.68571 184.313 4.68629 187.314C7.68687 190.314 11.7565 192 16 192H32V256C32 336.14 91.11 401.92 168 413.58V512H216V413.58C292.89 401.92 352 336.14 352 256V192H368C372.243 192 376.313 190.314 379.314 187.314C382.314 184.313 384 180.243 384 176V160C384 155.757 382.314 151.687 379.314 148.686C376.313 145.686 372.243 144 368 144ZM304 256C304 285.704 292.2 314.192 271.196 335.196C250.192 356.2 221.704 368 192 368C162.296 368 133.808 356.2 112.804 335.196C91.8 314.192 80 285.704 80 256V192H304V256Z" fill="black"/> </g> <defs> <clipPath id="clip0_6_1189"> <rect width="384" height="512" fill="white"/> </clipPath> </defs> </svg>
