<svg width="1em" viewBox="0 0 512 512" fill="none" xmlns="http://www.w3.org/2000/svg"> <g clip-path="url(#clip0_6_1193)"> <rect x="329.141" y="28.8994" width="161.095" height="109.873" transform="rotate(18.8853 329.141 28.8994)" fill="#E4BF3A"/> <path d="M501.5 66.7L433.9 42.1L439.4 27.1C442.4 18.8 438.1 9.60001 429.8 6.60001L414.8 1.10001C406.5 -1.89999 397.3 2.40001 394.3 10.7L388.8 25.7L321.1 1.10001C310 -2.99999 302.5 5.60001 300.6 10.6L256.8 130.9C253.8 139.2 258.1 148.4 266.4 151.4L334 176L318.2 219.5C318.2 219.5 268.3 202.4 268.7 203L218.2 144.4C207.8 134 193.4 128 178.6 128H115.7C94.2999 128 75.1999 139.9 65.5999 158.9L2.49995 285.3C-3.40005 297.2 1.39995 311.6 13.1999 317.5C27.2999 324.5 40.6 316.2 45.4 306.8L95.9999 205.7V302.4L72.1999 484.9C70.4999 498.1 79.7999 510.1 92.8999 511.8C93.8999 511.9 94.9999 512 95.9999 512C107.9 512 118.2 503.2 119.8 491.1L141 328H155L206.2 406.2C207.3 407.6 207.9 409.4 207.9 411.2V488C207.9 501.2 218.6 512 231.9 512C245.1 512 255.9 501.3 255.9 488V411.2C255.9 398.5 251.6 386.1 245 378.1L191.9 296.9V187.3L233.5 235.6C239.6 241.7 247.1 246.4 255.4 249.2L301.7 264.6L287.8 302.9C284.8 311.2 289.1 320.4 297.4 323.4L312.4 328.9C320.7 331.9 329.9 327.6 332.9 319.3L379.1 192.4L446.7 217C458 221.1 465.4 212.3 467.2 207.4L511 87.2C514.1 78.9 509.8 69.7 501.5 66.7ZM433.1 161L312.9 117.2L334.8 57.1L455 100.9L433.1 161ZM144 96.1C170.5 96.1 192 74.6 192 48.1C192 21.6 170.5 0.10001 144 0.10001C117.5 0.10001 95.9999 21.6 95.9999 48.1C95.9999 74.6 117.5 96.1 144 96.1Z" fill="black"/> </g> <defs> <clipPath id="clip0_6_1193"> <rect width="512" height="512" fill="white"/> </clipPath> </defs> </svg>
