<svg width="1em" viewBox="0 0 544 512" fill="none" xmlns="http://www.w3.org/2000/svg" > <path d="M288 157.5C288 127 275.1 59.7 272.4 45.8C267.5 20.1 244.1 0 210.6 0C199.2 0 187.5 2.4 177.3 7.8C167.3 2.5 155.5 0 144 0C132.5 0 120.7 2.5 110.7 7.8C100.6 2.4 88.8 0 77.4 0C44.1 0 20.5 19.9 15.6 45.8C12.9 59.6 0 126.9 0 157.5C0 210.2 28.2 252.3 69.8 274.2L59.6 454.9C57.8 485.9 82.7 512 114 512H174C205.3 512 230.2 485.9 228.4 454.9L218.2 274.1C259.6 252.4 288 210.3 288 157.5ZM389.5 310.6L376.2 453.1C373.3 484.7 398.9 512 432 512H488C518.9 512 544 487.8 544 458V54C544 24.2 518.9 0 488 0C416.2 0 320 83 320 181.7C320 242.1 355 282.9 389.5 310.6Z" fill="#EED784" /> <path d="M288 157.5C288 127 275.1 59.7 272.4 45.8C267.5 20.1 244.1 0 210.6 0C199.2 0 187.5 2.4 177.3 7.8C167.3 2.5 155.5 0 144 0C132.5 0 120.7 2.5 110.7 7.8C100.6 2.4 88.8 0 77.4 0C44.1 0 20.5 19.9 15.6 45.8C12.9 59.6 0 126.9 0 157.5C0 210.2 28.2 252.3 69.8 274.2L59.6 454.9C57.8 485.9 82.7 512 114 512H174C205.3 512 230.2 485.9 228.4 454.9L218.2 274.1C259.6 252.4 288 210.3 288 157.5Z" fill="#EED784" /> <path d="M288 157.5C288 127 275.1 59.7 272.4 45.8C267.5 20.1 244.1 0 210.6 0C199.2 0 187.5 2.4 177.3 7.8C167.3 2.5 155.5 0 144 0C132.5 0 120.7 2.5 110.7 7.8C100.6 2.4 88.8 0 77.4 0C44.1 0 20.5 19.9 15.6 45.8C12.9 59.6 0 126.9 0 157.5C0 210.2 28.2 252.3 69.8 274.2L59.6 454.9C57.8 485.9 82.7 512 114 512H174C205.3 512 230.2 485.9 228.4 454.9L218.2 274.1C259.6 252.4 288 210.3 288 157.5Z" fill="#E4BF3A" /> <path d="M288 157.5C288 127 275.1 59.7 272.4 45.8C267.5 20.1 244.1 0 210.6 0C199.2 0 187.5 2.4 177.3 7.8C167.3 2.5 155.5 0 144 0C132.5 0 120.7 2.5 110.7 7.8C100.6 2.4 88.8 0 77.4 0C44.1 0 20.5 19.9 15.6 45.8C12.9 59.6 0 126.9 0 157.5C0 210.2 28.2 252.3 69.8 274.2L59.6 454.9C57.8 485.9 82.7 512 114 512H174C205.3 512 230.2 485.9 228.4 454.9L218.2 274.1C259.6 252.4 288 210.3 288 157.5ZM168.3 241.1L180.5 457.6C180.7 461 177.8 464 174 464H114C110.3 464 107.3 461.1 107.5 457.6L119.7 241.1C77.3 233 48 201.3 48 157.5C48 129.9 62.8 54.8 62.8 54.8C64.4 45.6 91.1 45.8 92.3 55V168.7C93.2 179.3 120.5 179.5 121.8 168.9L129.2 54.8C130.8 45.8 157.1 45.8 158.7 54.8L166.1 168.9C167.4 179.5 194.7 179.3 195.6 168.7V55C196.8 45.8 223.5 45.6 225.1 54.8C225.1 54.8 239.9 129.9 239.9 157.5C240 201.1 210.9 232.9 168.3 241.1ZM389.5 310.6L376.2 453.1C373.3 484.7 398.9 512 432 512H488C518.9 512 544 487.8 544 458V54C544 24.2 518.9 0 488 0C416.2 0 320 83 320 181.7C320 242.1 355 282.9 389.5 310.6ZM368 181.7C368 109.1 443.4 48 488 48C492.3 48 496 50.8 496 54V458C496 461.3 492.3 464 488 464H432C427.4 464 423.7 461 424 457.6L439.8 288.1C400.2 261.1 368 229.1 368 181.7Z" fill="black" /> </svg>
