<svg style="width: 1em; height: 1em;" width="32" height="32" viewBox="0 0 32 32" fill="none" xmlns="http://www.w3.org/2000/svg"> <path d="M13 26.6667H8C6.93913 26.6667 5.92172 26.2453 5.17157 25.4951C4.42143 24.745 4 23.7276 4 22.6667V9.33337C4 8.27251 4.42143 7.25509 5.17157 6.50495C5.92172 5.7548 6.93913 5.33337 8 5.33337H13" stroke="black" stroke-width="2" stroke-linecap="round" stroke-linejoin="round"/> <path d="M15.8247 21.6287L10.4908 17.0238C10.1781 16.7538 10 16.3825 10 16C10 15.6175 10.1781 15.2463 10.4908 14.9763L15.8247 10.3712C16.1027 10.1312 16.4762 10 16.8672 10C17.6794 10 18.3396 10.57 18.3396 11.2712V13.6L26.6101 13.6C27.3789 13.6 28 14.1362 28 14.8V17.2C28 17.8637 27.3789 18.4 26.6101 18.4H18.3396V20.7288C18.3396 21.43 17.6794 22 16.8672 22C16.4762 22 16.1027 21.865 15.8247 21.6287Z" fill="#EED784" stroke="black" stroke-width="2"/> </svg>
