<svg style="width: 1em; height: 1em;" width="32" height="32" viewBox="0 0 32 32" fill="none" xmlns="http://www.w3.org/2000/svg"> <path d="M19 5.33341L24 5.33341C25.0609 5.33341 26.0783 5.75484 26.8284 6.50499C27.5786 7.25513 28 8.27255 28 9.33341L28 22.6667C28 23.7276 27.5786 24.745 26.8284 25.4952C26.0783 26.2453 25.0609 26.6667 24 26.6667L19 26.6667" stroke="black" stroke-width="2" stroke-linecap="round" stroke-linejoin="round"/> <path d="M16.1753 10.3714L21.5092 14.9764C21.8219 15.2464 22 15.6176 22 16.0001C22 16.3826 21.8219 16.7539 21.5092 17.0239L16.1753 21.6289C15.8973 21.8689 15.5238 22.0001 15.1328 22.0001C14.3206 22.0001 13.6604 21.4301 13.6604 20.7289L13.6604 18.4001L5.38994 18.4001C4.62113 18.4001 4 17.8639 4 17.2001L4 14.8001C4 14.1364 4.62113 13.6001 5.38994 13.6001L13.6604 13.6001L13.6604 11.2714C13.6604 10.5701 14.3206 10.0001 15.1328 10.0001C15.5238 10.0001 15.8973 10.1351 16.1753 10.3714Z" fill="#EED784" stroke="black" stroke-width="2"/> </svg>
