<svg style="width: 1em; height: 1em;" width="32" height="32" viewBox="0 0 32 32" fill="none" xmlns="http://www.w3.org/2000/svg" > <path d="M12 9.5L6 6.5H4V22.5L12 26L20 22.5L27.5 26V9.5L19 6.5L12 9.5Z" fill="#E3BE39" /> <path d="M12 9.5L5 6L4 7V22.5L11.5 26.5L12 9.5Z" fill="#F9DC79" /> <path d="M12 9.5L5 6L4 7V22.5L11.5 26.5L12 9.5Z" fill="#F9DC79" /> <path d="M12 9.5L5 6L4 7V22.5L11.5 26.5L12 9.5Z" fill="#F9DC79" /> <path d="M28 9.5L21 6L20 7V22.5L27.5 26.5L28 9.5Z" fill="#F9DC79" /> <path d="M12 26.6673L4.73705 23.0358C4.28534 22.81 4 22.3483 4 21.8433V7.49136C4 6.50019 5.04308 5.85553 5.92962 6.29879L12 9.33398M12 26.6673L20 22.6673M12 26.6673V9.33398M20 22.6673L26.0704 25.7025C26.9569 26.1458 28 25.5011 28 24.5099V10.158C28 9.653 27.7147 9.19132 27.263 8.96546L20 5.33398M20 22.6673V5.33398M20 5.33398L12 9.33398" stroke="#111827" stroke-width="2" stroke-linecap="round" stroke-linejoin="round" /> </svg>
