<svg width="1em" viewBox="0 0 640 512" fill="none" xmlns="http://www.w3.org/2000/svg">
<circle cx="129" cy="315" r="96" fill="#E4BF3A"/>
<circle cx="517" cy="315" r="96" fill="#EED784"/>
<path d="M514.115 192.017C496.478 191.732 479.646 195.022 464.283 201.198L384.993 73.452C383.199 70.5611 380.696 68.1758 377.723 66.5219C374.749 64.8679 371.403 63.9999 368 64H300C293.373 64 288 69.373 288 76V92C288 98.627 293.373 104 300 104H356.874L389.15 156H256V140C256 133.373 250.627 128 244 128H148C136.954 128 128 136.954 128 148C128 159.046 136.954 168 148 168H209.187L183.537 204.644C166.74 196.542 147.903 192.001 128.005 192C57.3751 191.998 -0.442949 250.196 0.00305137 320.824C0.446051 391.137 57.5831 448 128 448C186.192 448 235.306 409.165 250.859 356H284C287.216 356 290.384 355.224 293.236 353.739C296.088 352.255 298.541 350.104 300.385 347.47L410.423 190.273L429.962 221.753C401.826 245.272 383.941 280.645 384 320.198C384.104 389.078 441.908 447.356 510.785 447.995C582.386 448.659 640.572 390.528 639.995 318.947C639.439 249.795 583.259 193.135 514.115 192.017ZM128 408C79.4771 408 40 368.523 40 320C40 271.477 79.4771 232 128 232C138.998 231.989 149.899 234.05 160.134 238.075L99.6151 324.53C90.3421 337.781 99.8571 356 116 356H208.294C194.509 386.625 163.705 408 128 408ZM154.413 316L193.054 260.799C206.463 275.521 214.952 294.796 215.906 316H154.413ZM273.587 316H255.932C254.863 281.195 239.906 249.887 216.408 227.437L238.413 196H357.587L273.587 316ZM507.871 407.905C462.357 405.813 425.655 368.686 424.056 323.153C423.132 296.851 433.82 272.976 451.384 256.265L499.227 333.345C502.722 338.976 510.121 340.707 515.751 337.212L529.345 328.774C534.976 325.279 536.707 317.881 533.212 312.25L485.861 235.963C494.873 233.154 504.502 231.758 514.487 232.035C560.284 233.305 597.801 270.105 599.905 315.872C602.284 367.647 559.647 410.285 507.871 407.905Z" fill="black"/>
</svg>
