<svg style="width: 1em; height: 1em;" width="32" height="32" viewBox="0 0 32 32" fill="none" xmlns="http://www.w3.org/2000/svg"> <path d="M16 14C18.7614 14 21 11.7614 21 9C21 6.23858 18.7614 4 16 4C13.2386 4 11 6.23858 11 9C11 11.7614 13.2386 14 16 14Z" fill="#E4BF3A"/> <path d="M25.5 27.5H6.5L8.5 22.5L13 19H19.5L23.5 23L25.5 27.5Z" fill="#EED784"/> <path d="M21.3337 9.33333C21.3337 12.2789 18.9458 14.6667 16.0003 14.6667C13.0548 14.6667 10.667 12.2789 10.667 9.33333C10.667 6.38781 13.0548 4 16.0003 4C18.9458 4 21.3337 6.38781 21.3337 9.33333Z" stroke="#111827" stroke-width="2" stroke-linecap="round" stroke-linejoin="round"/> <path d="M16.0003 18.6667C10.8457 18.6667 6.66699 22.8453 6.66699 28H25.3337C25.3337 22.8453 21.155 18.6667 16.0003 18.6667Z" stroke="#111827" stroke-width="2" stroke-linecap="round" stroke-linejoin="round"/> </svg>
